HIERARCHY
ROOT Hips
{
	OFFSET 0.000000 0.000000 0.000000
	CHANNELS 6 Xposition Yposition Zposition Zrotation Yrotation Xrotation 
	JOINT LHipJoint
	{
		OFFSET 0.000000 0.000000 0.000000
		CHANNELS 3 Zrotation Yrotation Xrotation
		JOINT LeftUpLeg
		{
			OFFSET 1.363060 -1.794630 0.839290
			CHANNELS 3 Zrotation Yrotation Xrotation
			JOINT LeftLeg
			{
				OFFSET 2.448110 -6.726130 0.000000
				CHANNELS 3 Zrotation Yrotation Xrotation
				JOINT LeftFoot
				{
					OFFSET 2.562200 -7.039590 0.000000
					CHANNELS 3 Zrotation Yrotation Xrotation
					JOINT LeftToeBase
					{
						OFFSET 0.157640 -0.433110 2.322550
						CHANNELS 3 Zrotation Yrotation Xrotation
						End Site
						{
							OFFSET 0.000000 0.000000 0.000000
						}
					}
				}
			}
		}
	}
	JOINT RHipJoint
	{
		OFFSET 0.000000 0.000000 0.000000
		CHANNELS 3 Zrotation Yrotation Xrotation
		JOINT RightUpLeg
		{
			OFFSET -1.305520 -1.794630 0.839290
			CHANNELS 3 Zrotation Yrotation Xrotation
			JOINT RightLeg
			{
				OFFSET -2.542530 -6.985550 0.000000
				CHANNELS 3 Zrotation Yrotation Xrotation
				JOINT RightFoot
				{
					OFFSET -2.568260 -7.056230 0.000000
					CHANNELS 3 Zrotation Yrotation Xrotation
					JOINT RightToeBase
					{
						OFFSET -0.164730 -0.452590 2.363150
						CHANNELS 3 Zrotation Yrotation Xrotation
						End Site
						{
							OFFSET 0.000000 0.000000 0.000000
						}
					}
				}
			}
		}
	}
	JOINT LowerBack
	{
		OFFSET 0.000000 0.000000 0.000000
		CHANNELS 3 Zrotation Yrotation Xrotation
		JOINT Spine
		{
			OFFSET 0.028270 2.035590 -0.193380
			CHANNELS 3 Zrotation Yrotation Xrotation
			JOINT Spine1
			{
				OFFSET 0.056720 2.048850 -0.042750
				CHANNELS 3 Zrotation Yrotation Xrotation
				JOINT Neck
				{
					OFFSET 0.000000 0.000000 0.000000
					CHANNELS 3 Zrotation Yrotation Xrotation
					JOINT Neck1
					{
						OFFSET -0.054170 1.746240 0.172020
						CHANNELS 3 Zrotation Yrotation Xrotation
						JOINT Head
						{
							OFFSET 0.104070 1.761360 -0.123970
							CHANNELS 3 Zrotation Yrotation Xrotation
							End Site
							{
								OFFSET 0.000000 0.000000 0.000000
							}
						}
					}
				}
				JOINT LeftShoulder
				{
					OFFSET 0.000000 0.000000 0.000000
					CHANNELS 3 Zrotation Yrotation Xrotation
					JOINT LeftArm
					{
						OFFSET 3.362410 1.200890 -0.311210
						CHANNELS 3 Zrotation Yrotation Xrotation
						JOINT LeftForeArm
						{
							OFFSET 4.983000 -0.000000 -0.000000
							CHANNELS 3 Zrotation Yrotation Xrotation
							JOINT LeftHand
							{
								OFFSET 3.483560 -0.000000 -0.000000
								CHANNELS 3 Zrotation Yrotation Xrotation
								JOINT LeftFingerBase
								{
									OFFSET 0.000000 0.000000 0.000000
									CHANNELS 3 Zrotation Yrotation Xrotation
									JOINT LeftHandIndex1
									{
										OFFSET 0.715260 -0.000000 -0.000000
										CHANNELS 3 Zrotation Yrotation Xrotation
										End Site
										{
											OFFSET 0.000000 0.000000 0.000000
										}
									}
								}
								JOINT LThumb
								{
									OFFSET 0.000000 0.000000 0.000000
									CHANNELS 3 Zrotation Yrotation Xrotation
									End Site
									{
										OFFSET 0.000000 0.000000 0.000000
									}
								}
							}
						}
					}
				}
				JOINT RightShoulder
				{
					OFFSET 0.000000 0.000000 0.000000
					CHANNELS 3 Zrotation Yrotation Xrotation
					JOINT RightArm
					{
						OFFSET -3.136600 1.374050 -0.404650
						CHANNELS 3 Zrotation Yrotation Xrotation
						JOINT RightForeArm
						{
							OFFSET -5.241900 -0.000000 -0.000000
							CHANNELS 3 Zrotation Yrotation Xrotation
							JOINT RightHand
							{
								OFFSET -3.444170 -0.000000 -0.000000
								CHANNELS 3 Zrotation Yrotation Xrotation
								JOINT RightFingerBase
								{
									OFFSET 0.000000 0.000000 0.000000
									CHANNELS 3 Zrotation Yrotation Xrotation
									JOINT RightHandIndex1
									{
										OFFSET -0.622530 -0.000000 -0.000000
										CHANNELS 3 Zrotation Yrotation Xrotation
										End Site
										{
											OFFSET 0.000000 0.000000 0.000000
										}
									}
								}
								JOINT RThumb
								{
									OFFSET 0.000000 0.000000 0.000000
									CHANNELS 3 Zrotation Yrotation Xrotation
									End Site
									{
										OFFSET 0.000000 0.000000 0.000000
									}
								}
							}
						}
					}
				}
			}
		}
	}
}
MOTION
Frames: 10
Frame Time: 0.033333
-0.680957 17.399947 56.423878 89.235433 1.830316 -37.110444 -77.094318 -47.304515 40.859479 1.695618 7.850917 -58.159974 -91.631316 75.113742 -50.689817 22.643072 15.860899 58.679183 2.808546 -1.944153 34.544002 46.357939 -1.400900 -117.663692 21.676173 -57.514301 -75.560683 135.098493 -46.920644 -106.069048 -43.600750 5.909905 31.031441 6.984386 -8.282739 54.877585 -161.778889 71.419667 -88.853730 162.249571 79.184461 162.622521 123.825541 58.872230 117.456866 -60.238036 -37.503812 48.602128 -22.558482 -35.299416 23.514456 0.588919 -0.274690 0.278909 49.417213 67.404759 -3.736687 122.052088 60.487244 77.198489 13.190342 -13.500930 -114.982757 -16.322914 -29.876638 -156.729130 -123.254845 -45.950136 117.602513 -0.516979 -0.182611 0.322044 0.381502 0.330621 -0.497867 53.827136 45.531534 88.366253 44.339713 30.237772 159.542729 18.356456 15.840326 83.728380 32.217491 -46.853930 32.622578 -31.322957 51.476665 -41.639119 -0.594634 0.558556 -0.670821 -0.535773 -0.446658 -0.194797 
-0.679867 17.400292 56.421806 88.031972 1.826230 -35.811273 -73.446636 -47.803899 38.903134 -0.384785 6.737178 -58.038449 -88.463350 74.918041 -47.130433 23.420651 13.527836 59.810052 2.584069 -1.626587 35.670810 47.625333 -0.234087 -117.250312 19.657201 -56.500063 -74.721042 136.796258 -45.748662 -106.997355 -46.042220 9.514429 32.589497 6.898682 -8.661753 57.384971 -158.459779 70.942912 -87.767294 156.415937 78.853175 157.608705 121.444901 59.019738 117.313694 -63.766331 -40.918132 51.034004 -26.406385 -38.532480 23.469756 0.429491 -0.148535 0.309974 45.100284 68.825871 -5.312445 124.621667 62.999973 77.853966 14.206417 -11.998531 -113.986530 -18.728127 -23.125332 -143.736198 -123.122017 -43.647853 113.720813 -0.362760 -0.210494 0.255470 0.475540 0.438261 -0.483003 55.489145 44.405506 88.811062 44.058733 30.564036 159.802216 19.354646 18.550433 84.355028 36.863718 -48.257972 26.449754 -41.008050 56.387935 -53.418795 -0.449865 0.513397 -0.485047 -0.357370 -0.607951 -0.355104 
-0.678903 17.400576 56.419949 87.145414 2.060577 -35.038379 -70.004739 -46.730117 36.268294 -0.858423 3.858749 -56.405941 -91.517053 74.105861 -50.245892 24.872953 9.360178 60.820212 2.361638 -1.413890 36.440804 48.026308 -0.076811 -116.809779 19.949009 -56.279517 -75.884877 138.244505 -45.404541 -107.961050 -45.892965 10.584013 32.770982 6.959858 -8.981022 58.771632 -155.186049 69.990328 -85.215690 163.668233 78.989227 164.294324 119.774693 59.072245 115.746975 -65.326340 -38.679403 50.512624 -27.010956 -42.020847 23.616682 0.495066 -0.265078 0.255648 40.910409 69.342127 -7.034734 125.754781 65.391153 77.268820 15.170644 -10.897699 -111.955996 -17.260903 -22.272374 -135.318119 -122.004124 -41.061399 109.134885 -0.469571 -0.148175 0.284101 0.383681 0.275676 -0.451432 57.088011 43.080049 89.087732 43.936140 30.712815 160.678327 20.066210 20.784023 85.059061 41.276262 -48.550346 20.087654 -57.279392 55.619401 -70.404860 -0.587006 0.483597 -0.634260 -0.489004 -0.398891 -0.160127 
-0.678114 17.400795 56.418438 85.621090 1.733861 -33.888662 -65.777994 -46.850422 34.319300 -3.150253 2.364629 -56.128388 -87.673902 73.336733 -46.521582 27.057637 4.019395 61.676756 2.504403 -1.348593 36.344107 49.424485 1.010219 -116.055101 18.669976 -55.359560 -76.059269 140.059473 -44.181977 -109.449668 -47.988597 13.859378 33.439043 6.701065 -8.966947 60.312389 -151.666541 69.895658 -84.086615 155.762019 78.860382 157.301844 117.001503 59.344377 115.213901 -67.557825 -42.062552 51.211446 -28.025001 -45.628274 24.707360 0.397238 -0.101242 0.217409 36.952113 70.446755 -8.352580 126.482811 68.072237 75.676951 15.442884 -9.314770 -110.991712 -18.112582 -18.444784 -125.205819 -122.919064 -36.583876 106.230912 -0.325803 -0.196143 0.197680 0.392846 0.367309 -0.422360 58.480951 42.325934 89.277996 43.615593 30.604143 161.164079 20.185051 22.917311 85.448082 42.835232 -49.267219 17.181096 -76.605230 53.188055 -90.189581 -0.386781 0.488287 -0.410703 -0.335988 -0.533003 -0.254157 
-0.677450 17.400954 56.417141 84.945437 1.739643 -33.152052 -62.497592 -45.711147 31.704686 -4.158701 -0.261333 -54.438375 -88.877916 72.192544 -48.121462 30.058131 -3.541188 61.847732 2.594266 -1.327969 35.212071 49.733683 1.468979 -115.524791 19.225954 -54.942441 -77.715911 141.943758 -43.928935 -111.402773 -52.806962 19.496388 31.383601 6.538910 -8.902627 61.284989 -149.391743 68.935792 -82.561480 163.495379 78.996920 164.300951 114.124492 59.416278 112.094631 -66.002507 -41.468665 48.006950 -28.060951 -49.652135 21.232724 0.430228 -0.219917 0.200252 35.347103 70.914219 -7.994351 125.942092 70.868341 73.256317 16.322380 -8.437769 -109.721522 -17.842321 -19.165003 -117.768088 -121.472413 -35.251389 103.954546 -0.357750 -0.111751 0.213549 0.371992 0.188513 -0.412766 59.412243 41.296509 89.145818 43.421158 30.535234 162.606914 20.207560 24.554389 85.603522 44.010178 -47.497725 13.400898 -89.308101 48.125440 -98.067615 -0.553450 0.410010 -0.598344 -0.413734 -0.327852 -0.159176 
-0.676909 17.401020 56.416065 83.496803 1.314980 -32.024145 -58.583964 -45.200281 29.580139 -6.615344 -1.853573 -53.692593 -84.420111 71.416430 -44.127392 34.258755 -12.825372 60.873280 3.089730 -1.507965 33.253428 51.102900 2.328033 -114.844219 18.990222 -54.070301 -78.931078 144.381171 -43.175023 -114.063722 -60.537515 26.939162 28.153245 6.084714 -8.439854 62.286739 -145.855327 68.868528 -81.369688 156.097967 78.906335 157.849422 111.608184 59.160373 111.163171 -66.332521 -42.591977 47.463926 -24.556457 -52.344295 18.135748 0.344981 -0.077696 0.166726 34.231194 71.317128 -7.401342 124.413504 73.585680 69.918935 16.804713 -7.474291 -109.731014 -22.157280 -19.290919 -108.632917 -125.013390 -30.425255 103.754995 -0.288638 -0.184656 0.149118 0.277785 0.341101 -0.406782 60.141192 40.806820 88.976852 43.561819 30.073243 163.237730 20.161000 26.044737 85.939825 43.683701 -46.995098 12.564308 -99.070297 36.314138 -107.185501 -0.323303 0.431268 -0.368393 -0.312749 -0.507385 -0.133399 
-0.676525 17.400967 56.415333 82.803434 1.150994 -31.558620 -56.370544 -44.072598 27.895409 -7.940783 -3.616295 -52.172270 -84.039950 70.644279 -44.464947 38.084257 -19.908259 58.877238 3.420541 -1.577595 30.498918 51.613692 3.003288 -114.149948 19.770370 -53.347139 -81.036287 146.549979 -43.003264 -116.679931 -71.620502 35.588144 21.021911 5.634683 -7.942133 63.422047 -145.212144 68.116016 -81.848895 162.382448 78.916484 163.229999 109.088683 58.963760 108.176691 -63.846068 -42.796408 43.480872 -22.248174 -54.580531 10.119321 0.374327 -0.200782 0.168810 35.416746 71.652639 -5.842138 120.218690 76.448392 64.760055 17.887464 -6.684014 -109.086860 -23.414876 -19.076621 -101.820723 -125.059482 -29.873663 104.956544 -0.339813 -0.076907 0.167033 0.369880 0.082138 -0.335385 60.125412 40.166665 88.677431 43.733818 29.725926 164.460265 20.166024 27.109120 85.949414 44.651320 -44.695331 9.676032 -111.529941 27.473009 -111.215444 -0.479758 0.374132 -0.519824 -0.321032 -0.299505 -0.167371 
-0.676262 17.400822 56.414822 81.833634 0.655436 -30.462081 -53.680430 -43.412247 26.514868 -9.737777 -4.733938 -51.411355 -81.825165 69.902594 -42.857944 44.243247 -30.006440 55.134921 4.132380 -1.795833 27.223163 53.188202 3.594419 -113.301668 20.325954 -52.286881 -82.624125 149.600155 -42.815756 -120.138034 -82.653651 41.820614 13.111555 5.133257 -7.411616 64.386327 -143.491902 67.938057 -82.289821 155.326989 78.844424 157.230517 107.487866 58.802367 107.760598 -64.344685 -42.633733 44.202909 -15.493894 -58.328615 3.847916 0.340922 -0.057260 0.115677 35.877121 72.116285 -4.801972 112.397792 78.844668 56.378622 18.087624 -5.923386 -109.266452 -28.698811 -20.534810 -95.790666 -127.567234 -24.230323 106.571981 -0.263742 -0.175162 0.137661 0.252833 0.281265 -0.386326 60.002522 39.779425 88.292957 44.145267 28.838442 165.032440 20.214768 27.878508 85.954976 42.677527 -44.261507 10.980616 -119.136607 14.669835 -114.199337 -0.274761 0.420496 -0.312632 -0.331860 -0.423883 -0.065908 
-0.676017 17.400636 56.414150 81.590122 0.072668 -30.283866 -52.186011 -42.529312 25.773393 -10.773750 -5.533220 -50.618757 -81.428615 68.784157 -43.117496 47.544611 -34.103927 52.731494 4.591593 -1.840563 23.780712 53.774071 4.429680 -112.459811 21.137229 -51.590836 -84.798968 151.281094 -43.632298 -122.657326 -96.179392 47.125387 2.124591 4.645567 -6.788369 65.575997 -144.513130 67.287154 -84.346721 160.487794 78.976108 161.547448 105.924665 58.505711 105.784252 -61.667012 -43.776786 40.767091 -14.061054 -58.620108 -2.588129 0.301260 -0.160406 0.142667 38.534997 72.687478 -2.673623 99.259066 80.858240 42.829684 18.641475 -4.881816 -108.536785 -29.224601 -18.691150 -91.741711 -127.019625 -24.438225 109.846405 -0.324970 -0.069567 0.140290 0.368181 0.056559 -0.299771 59.299952 39.291973 87.956271 44.267304 28.181028 166.017304 20.521612 28.279270 85.211226 41.787611 -42.107920 10.433402 -131.419162 7.127175 -114.475248 -0.455855 0.361287 -0.451916 -0.263661 -0.302010 -0.147322 
-0.675713 17.400407 56.413013 81.093254 -0.536248 -29.282641 -50.367175 -41.834043 24.946221 -12.019941 -6.171701 -49.985025 -79.951966 67.602530 -42.244252 52.974025 -40.871311 48.693463 5.313446 -1.967684 19.963849 55.041355 5.103456 -111.787682 21.621265 -50.760691 -86.126696 153.242963 -44.131990 -125.194561 -106.560583 49.177099 -6.146686 4.121678 -6.156993 66.547431 -144.148380 67.117434 -85.440019 158.018994 78.806162 159.700671 104.378518 58.648915 104.717623 -59.186554 -42.941411 40.236018 -4.461451 -62.473899 -11.179774 0.346743 -0.050537 0.118244 41.988036 72.966006 0.304670 83.843967 81.807469 27.934711 18.447584 -3.862964 -108.679938 -35.265394 -20.159738 -87.192150 -129.497653 -19.210244 111.635679 -0.247575 -0.195692 0.127112 0.251878 0.276365 -0.405559 58.976335 38.971784 87.186182 44.521354 26.813568 166.349266 20.845889 28.289304 84.409545 37.660342 -42.547880 14.438039 -141.058643 -0.674317 -113.289436 -0.288366 0.402102 -0.346005 -0.331788 -0.415038 -0.023228 
